<?xml version="1.0" standalone="no"?>
<!DOCTYPE svg PUBLIC "-//W3C//DTD SVG 20010904//EN"
 "http://www.w3.org/TR/2001/REC-SVG-20010904/DTD/svg10.dtd">
<svg version="1.0" xmlns="http://www.w3.org/2000/svg"
 width="1280.000000pt" height="720.000000pt" viewBox="0 0 1280.000000 720.000000"
 preserveAspectRatio="xMidYMid meet">

<g transform="translate(0.000000,720.000000) scale(0.100000,-0.100000)"
fill="#000000" stroke="none">
<path d="M5764 5763 l-407 -328 116 -3 116 -3 415 312 c229 171 421 309 428
306 7 -3 103 -77 213 -165 110 -88 202 -158 205 -155 2 2 -1 7 -7 11 -6 4 -64
53 -129 109 -66 56 -157 134 -204 172 l-85 71 -127 0 -126 0 -408 -327z"/>
<path d="M6610 5955 c0 -10 65 -64 78 -65 7 0 26 9 41 21 l29 21 128 -97 c71
-53 131 -100 132 -106 2 -5 -14 -9 -36 -9 -36 0 -50 -10 -200 -147 l-161 -148
65 -3 64 -3 143 126 c78 70 147 129 154 132 6 2 76 -43 155 -102 201 -150 32
1 -297 265 l-149 120 -73 0 c-40 0 -73 -2 -73 -5z"/>
<path d="M6292 5658 l3 -63 58 -3 57 -3 0 66 0 65 -60 0 -61 0 3 -62z"/>
<path d="M6442 5658 l3 -63 55 0 55 0 3 63 3 62 -61 0 -61 0 3 -62z"/>
<path d="M6297 5563 c-4 -3 -7 -33 -7 -65 l0 -58 60 0 60 0 0 65 0 65 -53 0
c-30 0 -57 -3 -60 -7z"/>
<path d="M6440 5505 l0 -65 60 0 61 0 -3 63 -3 62 -57 3 -58 3 0 -66z"/>
<path d="M5785 4866 c-49 -13 -130 -40 -180 -60 -97 -40 -96 -40 75 1 101 24
134 28 275 27 152 0 170 -2 370 -46 286 -62 343 -71 465 -71 108 0 190 14 358
60 94 26 121 42 41 24 -24 -5 -105 -17 -179 -27 -213 -27 -274 -20 -735 81
-86 19 -160 28 -260 31 -125 4 -149 2 -230 -20z"/>
<path d="M5760 3910 l0 -490 35 0 35 0 1 328 c0 192 4 318 9 306 5 -12 39
-133 75 -270 37 -137 71 -256 75 -264 9 -16 7 -24 100 320 34 123 63 226 66
229 2 2 4 -143 4 -322 l0 -327 40 0 40 0 0 490 0 490 -40 0 c-37 0 -40 -2 -49
-37 -6 -21 -40 -157 -76 -303 -36 -146 -69 -274 -74 -285 -10 -24 -5 -42 -91
305 -34 135 -65 262 -71 283 -9 34 -13 37 -44 37 l-35 0 0 -490z"/>
<path d="M6400 3910 l0 -490 40 0 40 0 0 490 0 490 -40 0 -40 0 0 -490z"/>
<path d="M6650 3910 l0 -490 113 0 c176 1 223 18 265 100 22 43 22 51 22 390
0 315 -2 349 -19 386 -36 80 -101 101 -318 103 l-63 1 0 -490z m282 381 l33
-29 3 -336 c2 -290 1 -341 -13 -370 -22 -47 -54 -60 -143 -61 l-77 0 -3 413
-2 412 85 0 c79 0 87 -2 117 -29z"/>
</g>
</svg>
